<svg xmlns="http://www.w3.org/2000/svg" viewBox="0 0 419.927 84.62">
  <defs>
    <style>
      .cls-1, .cls-2 {
        fill: #fff;
      }

      .cls-1 {
        fill-rule: evenodd;
      }
    </style>
  </defs>
  <g id="Group_10" data-name="Group 10" transform="translate(24 -599)">
    <g id="Group_9" data-name="Group 9" transform="translate(-24 599)">
      <path id="Path_10" data-name="Path 10" class="cls-1" d="M516.25,56.178l.005,0,.074-.057.136-.1,0,0c4.1-3.2,6.745-7.971,7.483-15.1l.063.128c1.041-8.094.172-17.52.289-25.008.065-4.16-.657-3.571-5.182-3.465-5.835.139-3.716,3.127-3.716,6.086v18.7c0,16.315-16.359,15.5-28.73,15.5-11.336,0-10.728.97-10.714-3.988.011-4.179.346-34.29-.229-35.682-.9-.948-7.44-.695-7.925-.46-1.141.553-.907,1.665-.853,5.021.21,12.572-.365,29.956.114,41.5.1,2.484-1.433,2.247,4.865,2.471l29.819-.2.133-.025v-.005l.5-.079.937-.163A31.363,31.363,0,0,0,515.37,56.8l.022.008Z" transform="translate(-339.681 -9.076)"/>
      <path id="Path_11" data-name="Path 11" class="cls-1" d="M43.933,24.169c3.716,0,6.764-.921,5.754,4.479-.376,2-2.376,1.449-7.121,1.449-.245-1.152-1.253-5.928,1.368-5.928Zm-23.257,0,6.386,0c.624,1.3,1.662,5.925-.913,5.925h-2.28c-2.177,0-2.422-4.46-3.193-5.928Zm10.646,0,7.592,0,.147,4.558-.147,1.37H37.548l-6.386-.011.161-5.92ZM42.4,16.424c2.5-1.128,6.416-.022,6.862.335.809.646.588,3.588.139,4.672a8.206,8.206,0,0,1-3.454.305c-2.544.052-1.25-.191-3.386-.76L42.4,16.424ZM31.165,15.049l7.3.327.918,5.143c-2.212,1.474-.877,1.207-3.3,1.147-.556-.014-3.043.433-4.051-.158-1.447-.85-.2-4.838-.866-6.459Zm-13.681-.455c.618-.771.809-.608,3.759.1,1.528.365,1.923-.207,4.141.193,3.043.548,2.381,1.3,2.321,2.983-.049,1.422.558,2.82-.509,3.569-.594.417-6.247.436-6.89.123-.866-.422-2.8-6.944-2.822-6.966Zm.455,22.344h36.48c1.212-1.812,2.28-1.782,2.28-5.018,0-27.678.956-20.8-10.537-22.232L31.345,8.331c-4.092-.455-5.416-.09-8.306-.4-12.077-1.286-4.53-.428-10.693-5.6C9.815.218,6.949,0,3.8,0c-4.114,0-6.091,6.873.346,7.069,6.3.193,5.786,5.424,6.65,7.824,2.354,6.544,1.855,7.347,3.182,12.044.455,1.61,1.155,3.34,1.784,5.495C17.236,37.466,16.814,34.895,17.939,36.938Z" transform="translate(0.004)"/>
      <path id="Path_12" data-name="Path 12" class="cls-1" d="M557.133,47.078c8.565,0,7.143,1.071,7.146-7.067l.15-24.853c0-.953,1.634-2.468-3.738-2.457-5.863.014-6.347-1.24-5.348,16.6l.18,12.161c-.117,1.493-1.087,5.617,1.61,5.617Zm-1.368-34.2c.044.046-.128.128-.136.136Z" transform="translate(-403.755 -9.23)"/>
      <path id="Path_13" data-name="Path 13" class="cls-1" d="M54.4,159.689c3.2,0,5.56-.384,7-4.051,1.082-2.746.027-4.623-2.01-6.429-5.489-4.865-9.475,1.419-9.818,3.487C48.86,157.028,52.47,159.689,54.4,159.689Z" transform="translate(-36.001 -107.248)"/>
      <path id="Path_14" data-name="Path 14" class="cls-1" d="M152.91,153.857a5.875,5.875,0,0,0,1.648,4.7c2.152,2.207,10.208,3.863,10.208-5.154,0-6.576-11.856-7.538-11.856.455Zm10.943-3.645c-.046.046-.128-.128-.136-.136Z" transform="translate(-111.253 -107.801)"/>
      <g id="Group_8" data-name="Group 8" transform="translate(75.7 61.246)">
        <path id="Path_15" data-name="Path 15" class="cls-1" d="M873.432,239.628c0-3.285,4.051-3.253,5.018.918-.509.343-1.534,1.376-1.825,1.376-1.536,0-3.193-.809-3.193-2.294Zm-5.933,4.585c0,2.82-.234,4.454,1.825,6.416,3.471-.289,6.585-7.778,11.142-2.939,5.345,5.675,5.745.986,5.745-3.018,0-2.67-4.182-10.684-5.835-13.39-1.291-2.114-1.493-3.111-4.206-3.111-3.351,0-5.261,3.411-6.541,5.805C868.071,236.885,867.5,239.939,867.5,244.213Z" transform="translate(-706.865 -227.257)"/>
        <path id="Path_16" data-name="Path 16" class="cls-1" d="M284.72,233.359c5.582,0,5.44,1.152,2.967,4.814-1.09,1.615-.561,1.861-2.967,2.06-.681-1.419-3.144-6.873,0-6.873Zm-6.846-4.585c0,5.707-.123,10.644,1.438,15.972,1.144,3.9,3.7,2.637,6.721,1.389,17.122-7.083,11.657-19.655-3.6-19.655C280.666,226.483,277.874,227.093,277.874,228.774Z" transform="translate(-277.872 -226.028)"/>
        <path id="Path_17" data-name="Path 17" class="cls-1" d="M1447.11,233.352c0,5.906,6.794,6.459,7.759,10.082-4.928-.109-7.759-2.939-7.759,1.376,0,1.735,3.084,3.084,4.552,3.678,3.155,1.28-.749.9,7.77.9,4.035,0,8.186-4.032-.128-7.666-2.607-1.139-5.805-2.539-5.805-4.71,0-4.018,9-1.823,10.5-5.043l.033-1.373c-1.275-2.926-9.655-4.242-14.142-.88C1449.164,230.266,1447.11,232.377,1447.11,233.352Z" transform="translate(-1128.583 -226.94)"/>
        <path id="Path_18" data-name="Path 18" class="cls-1" d="M579.857,249.525l7.505-.711c1.477-.259,5.165-.79,5.241-2.539.174-4-11.033,1.8-12.292-3.623.9-.433,2.2-.716,3.392-1.177a12.9,12.9,0,0,1,3.912-1.114c-.226-2.732-1.03-1.64-3.986-1.956-.945-.1-4.228-.545-4.228-1.711,0-2.811,2.095-2.773,4.176-3.6,2.264-.9,3.345-1.773,5.863-2.362-.188-2.283-.616-1.776-2.825-2.2-3.863-.746-13.948-1.921-12.763,4.051.9,4.514,1.155,15.215,4.135,16.531A3.389,3.389,0,0,0,579.857,249.525Z" transform="translate(-493.151 -227.069)"/>
        <path id="Path_19" data-name="Path 19" class="cls-1" d="M1165.162,225.275c-.534,2.31-.33,2.8-.447,5.511-.123,2.855-4.964,17.408,7.748,17.408l4.514-.526c3.937-1.283,1.888-1.735,1.874-1.765-.76-1.806.651-.071-4.176-1.763-10.183-3.569-.861-19.32-7.688-19.32C1166.872,224.817,1165.309,225.218,1165.162,225.275Z" transform="translate(-922.387 -224.82)"/>
      </g>
      <path id="Path_20" data-name="Path 20" class="cls-1" d="M269.891,15.89c15.591,0,28.231,10.682,28.231,23.862s-12.64,23.862-28.231,23.862S241.66,52.931,241.66,39.752,254.3,15.89,269.891,15.89Zm0,5.991c-11.679,0-21.145,8-21.145,17.874s9.469,17.874,21.145,17.874,21.145-8,21.145-17.874S281.567,21.881,269.891,21.881Z" transform="translate(-175.825 -11.561)"/>
      <path id="Path_21" data-name="Path 21" class="cls-1" d="M667.77,62.037h57.157L699.611,13.93a6.781,6.781,0,0,0-7.007,0L667.77,62.037Zm11.248-8.184,15.062-30.648a4.108,4.108,0,0,1,4.247,0l15.354,30.648Z" transform="translate(-485.853 -9.427)"/>
      <path id="Path_22" data-name="Path 22" class="cls-1" d="M890.28,63.757V20.578c3.062-5.952,7.208-6.031,12.488,0l35.355,29.337V16.366H946.4q-.376,20.612-.752,41.223c-.659,8.878-5.323,6.756-13.3-.082l-34.388-26.7-.569,33.075Z" transform="translate(-647.746 -11.702)"/>
      <rect id="Rectangle_10" data-name="Rectangle 10" class="cls-2" width="56.078" height="7.421" transform="translate(363.849 4.075)"/>
      <rect id="Rectangle_11" data-name="Rectangle 11" class="cls-2" width="56.078" height="7.421" transform="translate(363.849 24.09)"/>
      <rect id="Rectangle_12" data-name="Rectangle 12" class="cls-2" width="56.078" height="7.421" transform="translate(363.849 44.28)"/>
      <path id="Path_23" data-name="Path 23" class="cls-1" d="M1113.463,17.5l45.511.1c5.307.654,8.576,3.171,10.02,7.364l-.242,8.813c-.237,4.615-2.337,6.811-5.794,7.244,7.058,3.9,5.312,10.777,5.312,17.626-1.466,4.329-4.814,5.773-9.175,5.675s-45.029-.725-45.029,0V58.527l44.062-.725a8.1,8.1,0,0,0,.37-12.809l-45.037-.229V37.4h45.391c3.452-3.83,3.582-7.944-.2-12.4l-45.192-.4Z" transform="translate(-810.127 -12.733)"/>
    </g>
  </g>
</svg>
