<svg xmlns="http://www.w3.org/2000/svg" viewBox="0 0 381.202 76.816">
  <defs>
    <style>
      .cls-1 {
        fill: #f48120;
      }

      .cls-1, .cls-2, .cls-3, .cls-4, .cls-5, .cls-6, .cls-8 {
        fill-rule: evenodd;
      }

      .cls-2 {
        fill: #808184;
      }

      .cls-3 {
        fill: #221d1f;
      }

      .cls-4 {
        fill: #ec1c24;
      }

      .cls-5 {
        fill: #00adee;
      }

      .cls-6 {
        fill: #2e3191;
      }

      .cls-7 {
        fill: #a5cd39;
      }

      .cls-8 {
        fill: #00a551;
      }
    </style>
  </defs>
  <g id="Group_8" data-name="Group 8" transform="translate(24 -599)">
    <g id="Group_9" data-name="Group 9" transform="translate(-24 599)">
      <path id="Path_10" data-name="Path 10" class="cls-1" d="M511.7,52.148l0,0,.067-.052.124-.094,0,0c3.722-2.908,6.123-7.236,6.793-13.71l.057.116c.945-7.347.156-15.9.262-22.7.059-3.776-.6-3.242-4.7-3.146-5.3.126-3.373,2.839-3.373,5.525V35.052c0,14.811-14.85,14.074-26.08,14.074-10.29,0-9.739.88-9.726-3.62.01-3.794.314-31.128-.208-32.391-.814-.861-6.754-.631-7.194-.418-1.036.5-.824,1.511-.774,4.558.19,11.413-.331,27.193.1,37.671.094,2.255-1.3,2.04,4.417,2.243l27.069-.178.121-.022v0l.453-.072.851-.148A28.47,28.47,0,0,0,510.9,52.716l.02.007Z" transform="translate(-351.41 -9.389)"/>
      <path id="Path_11" data-name="Path 11" class="cls-2" d="M39.881,21.94c3.373,0,6.14-.836,5.223,4.066-.341,1.818-2.156,1.316-6.464,1.316-.223-1.046-1.138-5.381,1.241-5.381Zm-21.112,0,5.8,0c.566,1.177,1.509,5.379-.828,5.379h-2.07c-1.976,0-2.2-4.048-2.9-5.381Zm9.664,0,6.892,0,.134,4.137-.134,1.244H34.085l-5.8-.01.146-5.374ZM38.492,14.91c2.268-1.024,5.824-.02,6.229.3.734.586.534,3.257.126,4.241a7.449,7.449,0,0,1-3.136.277c-2.31.047-1.135-.173-3.074-.69l-.146-4.132Zm-10.2-1.249,6.63.3.833,4.669c-2.008,1.338-.8,1.1-3,1.041-.5-.012-2.762.393-3.677-.143-1.313-.772-.181-4.392-.786-5.863Zm-12.419-.413c.561-.7.734-.551,3.413.089,1.387.331,1.746-.188,3.759.176,2.762.5,2.161,1.185,2.107,2.708-.045,1.291.507,2.56-.462,3.24-.539.378-5.671.4-6.254.111-.786-.383-2.542-6.3-2.562-6.323Zm.413,20.284H49.4c1.1-1.645,2.07-1.617,2.07-4.555,0-25.126.868-18.881-9.566-20.182L28.454,7.562c-3.714-.413-4.916-.082-7.54-.361C9.951,6.034,16.8,6.813,11.207,2.122,8.909.2,6.308,0,3.452,0c-3.734,0-5.53,6.239.314,6.417,5.72.176,5.253,4.924,6.037,7.1,2.137,5.94,1.684,6.67,2.888,10.933.413,1.462,1.049,3.032,1.62,4.988C15.646,34.011,15.263,31.677,16.284,33.531Z" transform="translate(0.004)"/>
      <path id="Path_12" data-name="Path 12" class="cls-1" d="M556.93,43.906c7.775,0,6.484.972,6.487-6.415l.136-22.561c0-.866,1.484-2.241-3.393-2.231-5.322.012-5.762-1.125-4.854,15.068l.163,11.039c-.106,1.355-.987,5.1,1.462,5.1ZM555.689,12.86c.04.042-.116.116-.124.124Z" transform="translate(-417.697 -9.549)"/>
      <path id="Path_13" data-name="Path 13" class="cls-2" d="M53.948,158.556c2.908,0,5.047-.349,6.356-3.677.982-2.493.025-4.2-1.825-5.836-4.983-4.417-8.6,1.288-8.913,3.165C48.918,156.14,52.194,158.556,53.948,158.556Z" transform="translate(-37.244 -110.951)"/>
      <path id="Path_14" data-name="Path 14" class="cls-2" d="M152.91,153.332a5.333,5.333,0,0,0,1.5,4.266c1.954,2,9.266,3.507,9.266-4.679,0-5.97-10.763-6.843-10.763.413Zm9.934-3.309c-.042.042-.116-.116-.124-.124Z" transform="translate(-115.094 -111.523)"/>
      <g id="Group_8-2" data-name="Group 8" transform="translate(68.719 55.598)">
        <path id="Path_15" data-name="Path 15" class="cls-3" d="M872.884,238.571c0-2.982,3.677-2.953,4.555.833-.462.312-1.392,1.249-1.657,1.249-1.395,0-2.9-.734-2.9-2.082Zm-5.386,4.162c0,2.56-.213,4.043,1.657,5.824,3.151-.262,5.977-7.06,10.115-2.668,4.852,5.151,5.216.9,5.216-2.74,0-2.424-3.8-9.7-5.3-12.155-1.172-1.919-1.355-2.824-3.818-2.824-3.042,0-4.775,3.1-5.938,5.27C868.017,236.081,867.5,238.853,867.5,242.734Z" transform="translate(-721.678 -227.342)"/>
        <path id="Path_16" data-name="Path 16" class="cls-3" d="M284.088,232.724c5.067,0,4.939,1.046,2.693,4.37-.989,1.466-.509,1.689-2.693,1.87-.618-1.288-2.854-6.239,0-6.239Zm-6.215-4.162c0,5.181-.111,9.662,1.306,14.5,1.039,3.544,3.363,2.394,6.1,1.261,15.543-6.43,10.582-17.843-3.264-17.843C280.409,226.482,277.874,227.036,277.874,228.562Z" transform="translate(-277.872 -226.069)"/>
        <path id="Path_17" data-name="Path 17" class="cls-3" d="M1447.11,232.834c0,5.361,6.168,5.863,7.043,9.153-4.474-.1-7.043-2.668-7.043,1.249,0,1.575,2.8,2.8,4.132,3.339,2.864,1.162-.68.821,7.053.821,3.663,0,7.431-3.66-.116-6.959-2.367-1.034-5.27-2.3-5.27-4.276,0-3.648,8.168-1.654,9.528-4.578l.03-1.246c-1.157-2.656-8.764-3.85-12.837-.8C1448.975,230.032,1447.11,231.949,1447.11,232.834Z" transform="translate(-1157.957 -227.013)"/>
        <path id="Path_18" data-name="Path 18" class="cls-3" d="M579.295,247.532l6.813-.645c1.34-.235,4.689-.717,4.758-2.3.158-3.63-10.016,1.63-11.158-3.289.819-.393,1.993-.65,3.079-1.068a11.708,11.708,0,0,1,3.551-1.011c-.205-2.48-.935-1.489-3.618-1.776-.858-.092-3.838-.495-3.838-1.553,0-2.552,1.9-2.518,3.791-3.264,2.055-.814,3.037-1.61,5.322-2.144-.171-2.072-.559-1.612-2.565-2-3.507-.678-12.662-1.743-11.586,3.677.814,4.1,1.049,13.812,3.754,15.006A3.076,3.076,0,0,0,579.295,247.532Z" transform="translate(-500.585 -227.147)"/>
        <path id="Path_19" data-name="Path 19" class="cls-3" d="M1165.028,225.233a20.66,20.66,0,0,0-.406,5c-.111,2.592-4.506,15.8,7.033,15.8l4.1-.477c3.573-1.165,1.714-1.575,1.7-1.6-.69-1.64.591-.064-3.791-1.6-9.244-3.24-.781-17.539-6.979-17.539C1166.581,224.817,1165.161,225.181,1165.028,225.233Z" transform="translate(-944.642 -224.82)"/>
      </g>
      <path id="Path_20" data-name="Path 20" class="cls-4" d="M267.288,15.89c14.153,0,25.628,9.7,25.628,21.661s-11.475,21.661-25.628,21.661-25.628-9.7-25.628-21.661S253.132,15.89,267.288,15.89Zm0,5.438c-10.6,0-19.2,7.263-19.2,16.225s8.6,16.225,19.2,16.225,19.2-7.263,19.2-16.225S277.887,21.328,267.288,21.328Z" transform="translate(-181.896 -11.96)"/>
      <path id="Path_21" data-name="Path 21" class="cls-5" d="M667.77,57.511h51.886L696.674,13.84a6.155,6.155,0,0,0-6.361,0L667.77,57.511Zm10.211-7.429,13.673-27.821a3.729,3.729,0,0,1,3.855,0l13.938,27.821Z" transform="translate(-502.629 -9.752)"/>
      <path id="Path_22" data-name="Path 22" class="cls-6" d="M890.28,59.36v-39.2c2.78-5.4,6.544-5.475,11.336,0l32.095,26.632V16.34h7.511l-.683,37.421c-.6,8.06-4.832,6.133-12.076-.074L897.246,29.449l-.517,30.025Z" transform="translate(-670.112 -12.106)"/>
      <rect id="Rectangle_10" data-name="Rectangle 10" class="cls-7" width="50.907" height="6.736" transform="translate(330.295 3.7)"/>
      <rect id="Rectangle_11" data-name="Rectangle 11" class="cls-7" width="50.907" height="6.736" transform="translate(330.295 21.869)"/>
      <rect id="Rectangle_12" data-name="Rectangle 12" class="cls-7" width="50.907" height="6.736" transform="translate(330.295 40.196)"/>
      <path id="Path_23" data-name="Path 23" class="cls-8" d="M1113.462,17.5l41.314.092c4.818.594,7.785,2.879,9.1,6.685l-.22,8c-.215,4.189-2.122,6.183-5.26,6.576,6.408,3.539,4.822,9.783,4.822,16-1.331,3.93-4.37,5.24-8.329,5.151s-40.876-.658-40.876,0v-5.26l40-.658a7.348,7.348,0,0,0,.336-11.628l-40.884-.208V35.565h41.205c3.133-3.477,3.252-7.211-.178-11.255l-41.025-.364Z" transform="translate(-838.1 -13.172)"/>
    </g>
  </g>
</svg>
